<?xml version="1.0" encoding="UTF-8"?>
<svg width="500px" height="500px" viewBox="0 0 160 160" version="1.1" xmlns="http://www.w3.org/2000/svg" xmlns:xlink="http://www.w3.org/1999/xlink">
    <!-- Generator: Sketch 39.1 (31720) - http://www.bohemiancoding.com/sketch -->
    <title>Artboard</title>
    <desc>Created with Sketch.</desc>
    <defs></defs>
    <g id="Page-1" stroke="none" stroke-width="1" fill="none" fill-rule="evenodd">
        <g id="Artboard" stroke="#000000" stroke-width="5">
            <g id="Group" transform="translate(15.000000, 13.000000)">
                <path d="M0.51245136,90.6446762 C40.1297032,45.6460406 79.0294951,64.5199301 55.3525689,90.6446777 C55.3525689,90.6446777 47.2221501,97.7937329 44.9241912,90.6446777 C43.1761468,85.2064317 46.4024619,79.5203183 49.1607198,78.0309846 C58.359002,73.064331 66.6070879,82.9057449 72.4405859,78.0309838 C78.1914116,73.2253079 63.0000002,55.1617979 68.7540667,55.1617979 C74.6050418,55.1617979 91.9489977,90.6446784 87.6247236,66.9910075 C86.1654181,59.0086432 81.8657603,44.8800154 77.6672213,32.3051424 C69.1777964,6.87881258 61.7866343,-7.39536362 72.4405825,5.19627582 C91.9194437,28.2178631 166.204244,168.877749 52.9139673,114.446259" id="Path-7"></path>
                <path d="M34.1199954,33.2681486 C36.7863303,34.7241069 39.6599518,36.4175059 43.596069,39.9027998 C43.6306441,39.9334148 49.3699541,45.311782 50.9219071,47.5799214" id="Path-3"></path>
            </g>
        </g>
    </g>
</svg>